<svg xmlns="http://www.w3.org/2000/svg" viewBox="0 0 498.8 668.54"><defs><style>.cls-1{fill:#39965f;}.cls-2{fill:#37f495;}.cls-3{fill:#ff2317;}.cls-4{fill:#f2ac3b;}</style></defs><title>strawberry</title><g id="Layer_2" data-name="Layer 2"><g id="Layer_1-2" data-name="Layer 1"><g id="strawberry"><g id="crown"><g id="lcrown"><path class="cls-1" d="M88.18,100.35C62.5,114,60.73,162,82.41,212,47,208.85,18.49,218.5,12.5,238.12c-7.94,26,26.6,59.55,77.15,75,45.3,13.85,88.08,8.44,102.18-11.53a27.21,27.21,0,0,0,2.68-1.26c28.37-15.08,27.56-72.08-1.8-127.3S116.55,85.27,88.18,100.35Z"/><path d="M138.38,332.2a180,180,0,0,1-52-8.24c-26.14-8-49.25-20.87-65.09-36.27C3.46,270.42-3.49,251.63,1.65,234.81c4-13,14.67-23,30.91-28.95,9.56-3.48,20.81-5.42,33.11-5.76-7-20.45-10.29-40.61-9.46-58.09,1.17-24.8,10.64-43.15,26.65-51.67h0c17.66-9.39,40.28-5.6,63.69,10.68,21.19,14.74,41.14,38.42,56.17,66.69s23.51,58,23.88,83.86c.4,28.51-9.1,49.38-26.77,58.77-.24.13-.48.26-.73.38C187.35,324.77,165.16,332.2,138.38,332.2ZM69.63,222.72c-24.39,0-42.76,7.16-46.29,18.72-2.5,8.17,2.5,19.1,13.7,30C50.35,284.36,70.21,295.32,93,302.28c43.5,13.3,79.73,6.77,89.61-7.23l1.9-2.68,3-1.26c.57-.24,1.14-.5,1.68-.79,9.64-5.12,15-19.13,14.73-38.42-.31-22.28-7.85-48.4-21.22-73.54s-30.81-46-49.1-58.72c-15.84-11-30.46-14.4-40.09-9.27h0c-11.69,6.21-14.2,23.16-14.65,32.71-.88,18.74,4.07,41.6,14,64.36l7.59,17.48-19-1.67C77.37,222.9,73.43,222.72,69.63,222.72Z"/></g><g id="rcrown"><path class="cls-1" d="M483.74,183.61c-13.66-25.68-61.66-27.45-111.6-5.77,3.11-35.39-6.55-63.92-26.17-69.92-26-7.93-59.54,26.61-75,77.15-13.86,45.31-8.44,88.09,11.52,102.19.38.91.8,1.81,1.26,2.68,15.09,28.37,72.08,27.56,127.3-1.8S498.82,212,483.74,183.61Z"/><path d="M330.79,322c-27.63,0-47.84-9.47-57-26.78-.13-.24-.26-.48-.38-.73-22.5-18.82-28-64.42-13.24-112.77,8-26.14,20.87-49.26,36.27-65.1,17.28-17.77,36.06-24.72,52.89-19.58,13,4,23,14.67,28.94,30.9,3.48,9.57,5.43,20.81,5.77,33.12,20.44-7,40.6-10.29,58.08-9.46,24.81,1.17,43.16,10.63,51.67,26.65,9.39,17.66,5.6,40.28-10.68,63.68-14.73,21.2-38.42,41.15-66.68,56.18S358.33,321.66,332.52,322Zm7.5-203.9c-7.5,0-16.58,5-25.63,14.33-12.93,13.3-23.88,33.16-30.84,55.92-13.3,43.5-6.77,79.72,7.22,89.61l2.69,1.9,1.25,3c.24.57.51,1.14.79,1.68,10.4,19.56,58.94,21.7,112-6.49,25.15-13.37,46-30.81,58.72-49.1,11-15.85,14.39-30.46,9.27-40.1-6.22-11.69-23.17-14.19-32.72-14.64-18.74-.89-41.6,4.07-64.36,14l-17.48,7.59,1.67-19c2.65-30.12-4.83-54-18.18-58.08A14.94,14.94,0,0,0,338.29,118.14Z"/></g><g id="mcrown"><path class="cls-2" d="M311.83,12.82c-30.85-9.43-69.89,26.84-92.06,83-25.32-30.2-55.27-45-75.36-34.32-26.6,14.14-25.84,67.57,1.69,119.34,24.67,46.4,62.47,75.71,89.19,71.11q1.52.63,3.09,1.11c34.08,10.42,78.15-34.91,98.44-101.26S345.91,23.24,311.83,12.82Z"/><path d="M248.57,265.93a46.14,46.14,0,0,1-13.51-2l-1.09-.35c-32,3.05-71.71-28.17-97.89-77.4-14.14-26.6-22.12-54.63-22.46-78.94-.38-27,8.66-46.8,25.46-55.73,13-6.91,28.84-6.37,45.84,1.56,10.54,4.92,21.2,12.54,31.39,22.4,10.63-22,24-40.87,38.6-54.13C275,3.11,296.34-3.77,315.15,2h0c20.75,6.34,35.21,26.72,40.72,57.36,5,28,2.12,62-8.21,95.79s-26.93,63.62-46.76,84C283.8,256.74,265.65,265.93,248.57,265.93Zm-12-25.69,3,1.26c.68.28,1.37.53,2.06.74,12,3.68,27.69-3.21,42.94-18.91,17.36-17.85,32-44.43,41.33-74.83s12-60.63,7.58-85.15c-3.87-21.54-13-36-25-39.68h0c-24.07-7.36-58.41,26.17-78.2,76.33l-7,17.72-12.24-14.6C189.16,77,163.93,64,149.73,71.53c-18,9.59-19.86,54.66,6.38,104,23.95,45.05,58.1,68.56,77.26,65.27Z"/></g></g><g id="body"><path class="cls-3" d="M249.39,239.68c-107.48,0-215,63-215,164.88,0,162.89,137,252.64,215,252.64s215-89.75,215-252.64C464.37,302.68,356.88,239.68,249.39,239.68Z"/><path d="M249.39,668.54c-21.57,0-46.21-6.09-71.23-17.61A271.07,271.07,0,0,1,46.69,517.4C31,482.49,23.08,444.53,23.08,404.56c0-110.31,115.07-176.22,226.31-176.22s226.32,65.91,226.32,176.22c0,40-7.94,77.93-23.61,112.84A271.07,271.07,0,0,1,320.63,650.93C295.61,662.45,271,668.54,249.39,668.54Zm0-417.52c-100.1,0-203.63,57.43-203.63,153.54,0,88,40.68,146.08,74.8,179.28,38.73,37.68,89.3,62,128.83,62s90.11-24.34,128.84-62c34.12-33.2,74.8-91.25,74.8-179.28C453,308.45,349.49,251,249.39,251Z"/></g><g id="eyes"><path id="leye" d="M177.81,426.08a9.92,9.92,0,0,1-9.92-9.92c0-10.86-9.78-11.42-11.75-11.42s-11.74.56-11.74,11.42a9.92,9.92,0,0,1-19.84,0c0-20.52,15.89-31.26,31.58-31.26s31.59,10.74,31.59,31.26A9.92,9.92,0,0,1,177.81,426.08Z"/><path id="reye" d="M364.31,426.08a9.92,9.92,0,0,1-9.92-9.92c0-10.86-9.78-11.42-11.75-11.42s-11.74.56-11.74,11.42a9.92,9.92,0,1,1-19.84,0c0-20.52,15.89-31.26,31.58-31.26s31.59,10.74,31.59,31.26A9.92,9.92,0,0,1,364.31,426.08Z"/></g><path id="mouth" d="M264.13,459.83h0a23.82,23.82,0,0,1-14.74-5.21,23.77,23.77,0,0,1-14.73,5.21h0c-8,0-15.5-4.16-20.55-11.4a7.09,7.09,0,1,1,11.63-8.11c2.39,3.44,5.56,5.33,8.92,5.33s6.53-1.89,8.92-5.33a7.1,7.1,0,0,1,5.81-3h0a7.1,7.1,0,0,1,5.82,3c2.39,3.44,5.56,5.33,8.92,5.33s6.53-1.89,8.92-5.33a7.09,7.09,0,0,1,11.63,8.11C279.63,455.67,272.14,459.83,264.13,459.83Z"/><g id="spots"><path class="cls-4" d="M249.39,291.9c-3.76,0-7.53,3.13-7.53,8.2,0,8.09,4.8,12.55,7.53,12.55s7.54-4.46,7.54-12.55C256.93,295,253.16,291.9,249.39,291.9Z"/><path class="cls-4" d="M130.56,320.32c-3.76,0-7.53,3.13-7.53,8.19,0,8.1,4.8,12.56,7.53,12.56s7.53-4.46,7.53-12.56C138.09,323.45,134.33,320.32,130.56,320.32Z"/><path class="cls-4" d="M368.23,320.32c-3.77,0-7.53,3.13-7.53,8.19,0,8.1,4.8,12.56,7.53,12.56s7.53-4.46,7.53-12.56C375.76,323.45,372,320.32,368.23,320.32Z"/><path class="cls-4" d="M249.39,517.32c-3.76,0-7.53,3.13-7.53,8.19,0,8.1,4.8,12.56,7.53,12.56s7.54-4.46,7.54-12.56C256.93,520.45,253.16,517.32,249.39,517.32Z"/><path class="cls-4" d="M316.23,566.32c-3.77,0-7.53,3.13-7.53,8.19,0,8.1,4.8,12.56,7.53,12.56s7.53-4.46,7.53-12.56C323.76,569.45,320,566.32,316.23,566.32Z"/><path class="cls-4" d="M182.56,566.32c-3.76,0-7.53,3.13-7.53,8.19,0,8.1,4.8,12.56,7.53,12.56s7.53-4.46,7.53-12.56C190.09,569.45,186.33,566.32,182.56,566.32Z"/><path class="cls-4" d="M374.23,486.65c-3.77,0-7.53,3.13-7.53,8.2,0,8.09,4.8,12.55,7.53,12.55s7.53-4.46,7.53-12.55C381.76,489.78,378,486.65,374.23,486.65Z"/><path class="cls-4" d="M124.56,486.65c-3.76,0-7.53,3.13-7.53,8.2,0,8.09,4.8,12.55,7.53,12.55s7.53-4.46,7.53-12.55C132.09,489.78,128.33,486.65,124.56,486.65Z"/></g></g></g></g></svg>